<svg width="128" height="128" viewBox="0 0 128 128" fill="none" xmlns="http://www.w3.org/2000/svg" role="img" aria-labelledby="title desc">
  <title id="title">Manarth Patel favicon</title>
  <desc id="desc">MP cybersecurity shield favicon.</desc>
  <defs>
    <linearGradient id="edge" x1="22" y1="14" x2="106" y2="116" gradientUnits="userSpaceOnUse">
      <stop stop-color="#6EB2FF"/>
      <stop offset="0.5" stop-color="#2D7CFF"/>
      <stop offset="1" stop-color="#1BE98C"/>
    </linearGradient>
  </defs>
  <rect width="128" height="128" rx="28" fill="#070A0F"/>
  <path d="M64 14L105 29V59.5C105 85.6 89.8 106.6 64 120C38.2 106.6 23 85.6 23 59.5V29L64 14Z" fill="#081526" stroke="url(#edge)" stroke-width="7" stroke-linejoin="round"/>
  <path d="M39 84V45.5C39 43.9 41 43.1 42.1 44.3L64 68.8L85.9 44.3C87 43.1 89 43.9 89 45.5V84" stroke="#EAF3FF" stroke-width="12" stroke-linecap="round" stroke-linejoin="round"/>
  <path d="M64 69H82C90.8 69 96 64.3 96 56.7C96 49.1 90.8 44.5 82 44.5H74V84" stroke="#EAF3FF" stroke-width="12" stroke-linecap="round" stroke-linejoin="round"/>
</svg>
